# xmcd
#
# Track frame offsets: 
#        150
#        21164
#        42001
#        62868
#        84664
#        103748
#        125819
#        145752
#        171201
#        189172
#        207602
#
# Disc length: 3026 seconds
#
# Revision: 2
# Processed by: cddbd v1.5.2PL0 Copyright (c) Steve Scherf et al.
# Submitted via: ExactAudioCopy v0.99pb5
#
DISCID=9d0bd00b
DTITLE=Lucky Peterson - Organ Soul Sessions - Mercy
DYEAR=2009
DGENRE=Soul
TTITLE0=Mercy
TTITLE1=Son Of A Preacher Man
TTITLE2=Stolen Moments
TTITLE3=Tell It Like It Is
TTITLE4=I Walk The Line
TTITLE5=The Sidewinder
TTITLE6=Yellow Moon
TTITLE7=Rainy Night In Georgia
TTITLE8=Me And Bobby McGee
TTITLE9=I Am So Lonesome I Could Cry
TTITLE10=I Can't Stand The Rain
EXTD=
EXTT0=
EXTT1=
EXTT2=
EXTT3=
EXTT4=
EXTT5=
EXTT6=
EXTT7=
EXTT8=
EXTT9=
EXTT10=
PLAYORDER=
